<svg xmlns="http://www.w3.org/2000/svg" viewBox="0 0 24 24" width="24" height="24" fill="currentColor"><path d="M11.718,2.202c-3.432,0-6.225,3.317-6.225,7.392s2.793,7.392,6.225,7.392c1.86,0,3.528-0.978,4.67-2.519v2.519c0,2.145-2.094,3.891-4.67,3.891c-1.911,0-3.554-0.962-4.275-2.334H5.756c0.768,2.247,3.149,3.891,5.963,3.891c3.432,0,6.225-2.444,6.225-5.447V2.981h-1.557v1.74C15.246,3.18,13.578,2.202,11.718,2.202z M11.718,3.758c2.576,0,4.67,2.618,4.67,5.837s-2.094,5.837-4.67,5.837S7.049,12.813,7.049,9.594S9.143,3.758,11.718,3.758z"/></svg>